<svg width="125" height="125" viewBox="0 0 231 275" xmlns="http://www.w3.org/2000/svg"><g fill="#edecf5"><path d="M114.6 5.92c-5.433-.908-10.904 1.382-14.07 5.89l-.08 9.89c3.92-3.036 8.686-4.782 13.64-5-.33-1-3.35-2.23-3.35-2.23L111 9l3.6-3.08z"></path><path d="M45 155.92c.55.22 4.78-1.68 4.78-1.68l-.64-5.89.77-7.07 7.33-5.73h76.17V16.08h-8.08c-.07-1.2.63-4.83.43-5.84-1.022-5.69-5.835-9.924-11.61-10.21 6.82 2.65 7.32 7.09 7.32 7.09-.716-.453-1.527-.733-2.37-.82 0 0 1.73 3 2.3 4.36l-1.15 5.84s-2-.16-1.82.38c4.6 1.92 4.77 4.88 4.77 4.88L121.79 27s-.74-4.85-6.58-6.25c-4.55-1.09-11.42 2.47-11.42 2.47L96.5 27.6l.22-13.13c-.66-7.67 5.84-11.84 5.84-11.84-11 1.29-10.85 13.89-10.85 13.89l-77 .09v110.66C41.44 92.79 47.2 74.9 47.2 74.9c-.37-.27-3.78-6.07-3.78-6.07L65.89 28c4.81-2.67 11.18-.07 11.18-.07s5.64-2 10.32-1.27c2.9.53 5.55 1.985 7.55 4.15l1.83 1.85 7.55-.62 3.34-4.69s2.81-1.48 3.51-1.7c1.63-.51 5.53 1.7 5.53 1.7-1.97-.236-3.89.713-4.9 2.42l-1.13 8 2.9 2 1.62 19.52-5.09 8.59-20.28-4.82 5-10-3.23-21.64c-1.347-.823-2.81-1.44-4.34-1.83-6.1-.88-10.75 1.43-15 8s-11 20.08-11 20.08C59.33 60.335 57.576 63.117 56 66c-2.58 4.52-5.47 15.56-6 16.9l-4 10 1 8.3 5.52-8.53 2.6-.39s1.53-7.38 1.53-8.11c0-1.6 6.67-11.18 6.67-11.18l6-8.33 10.92-10 .86 6.92s-11.07 23.05-41.59 59C29.285 132.474 15.805 141.12.73 145.45c22.72-1.34 29.67-11.23 30.47-11 1.265.124 2.54.103 3.8-.06l-4.82 5.11s-4.27 2.85-4.49 3.4c-.22.55 1.1 11.62 1.32 12.71.22 1.09 2.08 3.84 2.8 4.12.72.28 4.13-1.19 4.79-1.63.24-.16-.54-4.14-.54-4.8 0-.66 1.56-7.82 1.56-7.82l4.43-3.14 1.11 5 .62 4.23c1.08 1.79 2.68 4.13 3.22 4.35zm64.13-78.39L119.4 60.1 118 41.86l4 2.59c.89 2.908 1.622 5.862 2.19 8.85.54 2.71-.43 5.72-3.43 12.23-2.383 4.772-5.216 9.306-8.46 13.54-1.127 2.938-2.488 5.78-4.07 8.5-2.74 4.79-4.24 6.27-6.88 10.6-.985 1.785-1.837 3.64-2.55 5.55-.69 2.17-9.71 7.51-9.71 7.51 1.28-.82 4.28-4.7 4.28-4.7l4.2-5.42 8.76-15.53 2.8-8.05zM63 108.32s11.74-16.63 11.88-17l5.89-8.64 4.08-7.42 17.92 4.19-5.15 8.75-5.24 9.69c-2.838 4.495-6.292 8.572-10.26 12.11-4.133 3.684-8.626 6.944-13.41 9.73l18.3-25.1-4.48 1.16s-5.67 6.32-10.75 11.37c-5.08 5.05-19.41 14.72-19.41 14.72L63 108.32z"></path><path d="M44.56 106.74L43.15 98c-12.4 20.28-32.46 39.84-32.46 39.84 19.59-10.84 33.87-31.1 33.87-31.1zM38 197c-.79-.74-1.703-1.337-2.7-1.76-1.064-.45-2.174-.786-3.31-1l-6.25-1.34c-.887-.177-1.72-.56-2.43-1.12-.648-.676-.982-1.594-.92-2.528.064-.934.517-1.8 1.25-2.382.957-.636 2.092-.95 3.24-.9 1.213-.052 2.404.34 3.35 1.1.924.862 1.44 2.076 1.42 3.34h7.73c-.16-3.5-1.387-6.117-3.68-7.85-2.572-1.817-5.673-2.732-8.82-2.6-1.748-.026-3.49.223-5.16.74-1.39.42-2.69 1.1-3.83 2-2.07 1.668-3.26 4.193-3.23 6.85 0 4.873 2.637 7.873 7.91 9l5.43 1.17c1.194.224 2.345.636 3.41 1.22.87.517 1.374 1.48 1.3 2.49.054 1.115-.564 2.155-1.57 2.64-1.18.583-2.485.868-3.8.83-3.48 0-5.383-1.59-5.71-4.77h-7.75c-.025 3.082 1.324 6.014 3.68 8 2.293 1.86 5.543 2.79 9.75 2.79 1.89.03 3.772-.233 5.58-.78 1.49-.456 2.882-1.18 4.11-2.14 1.067-.835 1.935-1.898 2.54-3.11.586-1.19.887-2.502.88-3.83.028-1.21-.197-2.412-.66-3.53-.416-.95-1.014-1.81-1.76-2.53zM49.83 212.15h15.58v-6.01h-7.85v-19.53h7.85v-5.98h-7.85V170.1h-7.73v10.53h-6.25v5.98h6.25M90.65 207.56v4.59h7.73v-31.52h-7.73v18.23c.093 2.02-.55 4.007-1.81 5.59-1.243 1.453-3.09 2.244-5 2.14-1.853 0-3.14-.517-3.86-1.55-.796-1.298-1.177-2.81-1.09-4.33v-20.08h-7.73v20.65c0 3.66.847 6.513 2.54 8.56 1.693 2.047 4.23 3.07 7.61 3.07 1.964.07 3.91-.404 5.62-1.37 1.576-.968 2.86-2.343 3.72-3.98zM123 211.58c1.513-.913 2.785-2.175 3.71-3.68v4.26h7.73V170.1h-7.73v14.79c-.938-1.52-2.236-2.783-3.78-3.68-1.666-.92-3.547-1.38-5.45-1.33-1.908-.042-3.795.405-5.48 1.3-1.554.853-2.887 2.058-3.89 3.52-1.076 1.596-1.852 3.375-2.29 5.25-.512 2.11-.764 4.277-.75 6.45-.017 2.174.245 4.342.78 6.45.463 1.873 1.26 3.648 2.35 5.24 1.017 1.463 2.36 2.67 3.92 3.53 1.69.896 3.58 1.344 5.49 1.3 1.885.053 3.75-.41 5.39-1.34zm-9.91-10.75v-8.91c-.06-1.63.573-3.21 1.74-4.35 1.3-1.18 3.018-1.788 4.77-1.69 2.48 0 4.287.74 5.42 2.22 1.204 1.735 1.8 3.82 1.69 5.93v4.71c.106 2.106-.49 4.187-1.69 5.92-1.133 1.487-2.94 2.23-5.42 2.23-1.75.09-3.46-.525-4.75-1.71-1.164-1.142-1.795-2.72-1.74-4.35h-.02zM165.59 184.18c-1.255-1.352-2.777-2.428-4.47-3.16-1.838-.785-3.82-1.177-5.82-1.15-2.002-.026-3.986.376-5.82 1.18-1.724.765-3.254 1.907-4.48 3.34-1.286 1.528-2.264 3.29-2.88 5.19-.7 2.18-1.037 4.46-1 6.75-.015 2.29.322 4.57 1 6.76.576 1.907 1.524 3.68 2.79 5.22 1.214 1.447 2.738 2.602 4.46 3.38 1.89.833 3.936 1.246 6 1.21 3.39.147 6.73-.88 9.45-2.91 2.5-2.03 4.092-4.968 4.43-8.17h-7.73c-.12 1.45-.807 2.792-1.91 3.74-1.18.924-2.652 1.395-4.15 1.33-1.61.034-3.176-.517-4.41-1.55-1.266-1.097-1.953-2.718-1.86-4.39v-2.08h20.29V195c.012-2.042-.327-4.072-1-6-.618-1.79-1.602-3.432-2.89-4.82zm-4.09 8.68h-12.37v-1.12c-.055-1.6.587-3.142 1.76-4.23 2.556-2.177 6.314-2.177 8.87 0 1.173 1.088 1.815 2.63 1.76 4.23l-.02 1.12zM193 179.88c-1.97-.066-3.918.415-5.63 1.39-1.554.96-2.83 2.313-3.7 3.92v-4.56h-7.73v31.52h7.73v-18.23c-.095-2.023.545-4.01 1.8-5.6 1.248-1.444 3.094-2.23 5-2.13 1.504-.165 2.995.41 4 1.54.856 1.272 1.27 2.79 1.18 4.32v20.11h7.73V191.5c0-3.62-.837-6.463-2.51-8.53-1.673-2.067-4.297-3.097-7.87-3.09zM222.31 170.1h-7.73v10.53h-6.25v5.98h6.25v25.54h15.58v-6.01h-7.85v-19.53h7.85v-5.98h-7.85M38 248.59c-.79-.74-1.703-1.337-2.7-1.76-1.065-.45-2.174-.785-3.31-1l-6.25-1.34c-.887-.176-1.72-.56-2.43-1.12-.648-.676-.982-1.594-.92-2.528.064-.934.517-1.8 1.25-2.382.957-.636 2.092-.95 3.24-.9 1.213-.052 2.404.34 3.35 1.1.924.862 1.44 2.076 1.42 3.34h7.73c-.16-3.5-1.387-6.117-3.68-7.85-2.572-1.817-5.673-2.732-8.82-2.6-1.748-.026-3.49.223-5.16.74-1.39.42-2.69 1.1-3.83 2-1.01.812-1.83 1.837-2.4 3-.558 1.188-.842 2.487-.83 3.8 0 4.873 2.637 7.873 7.91 9l5.43 1.25c1.194.224 2.345.635 3.41 1.22.87.517 1.374 1.48 1.3 2.49.054 1.115-.564 2.155-1.57 2.64-1.18.583-2.485.868-3.8.83-3.48 0-5.383-1.59-5.71-4.77h-7.75c-.025 3.082 1.324 6.014 3.68 8 2.293 1.86 5.543 2.79 9.75 2.79 1.89.03 3.772-.233 5.58-.78 1.49-.453 2.882-1.175 4.11-2.13 1.067-.835 1.935-1.898 2.54-3.11.586-1.19.887-2.502.88-3.83.028-1.21-.197-2.412-.66-3.53-.41-.965-1.01-1.838-1.76-2.57zM65.68 250.49c.09 2.018-.552 4-1.81 5.58-1.243 1.453-3.09 2.244-5 2.14-1.853 0-3.14-.517-3.86-1.55-.796-1.298-1.177-2.81-1.09-4.33v-20.07h-7.73v20.65c0 3.66.847 6.513 2.54 8.56 1.693 2.047 4.23 3.067 7.61 3.06 1.964.07 3.91-.404 5.62-1.37 1.564-.98 2.835-2.36 3.68-4v4.59h7.73v-31.49h-7.73l.04 18.23zM108 236.32c-1.004-1.46-2.336-2.666-3.89-3.52-1.69-.895-3.58-1.342-5.49-1.3-1.903-.052-3.785.407-5.45 1.33-1.536.9-2.827 2.164-3.76 3.68v-4.26h-7.73v42h7.73v-14.73c.935 1.518 2.23 2.782 3.77 3.68 1.66.918 3.534 1.377 5.43 1.33 3.752.11 7.298-1.713 9.39-4.83 1.07-1.587 1.843-3.356 2.28-5.22.502-2.123.744-4.3.72-6.48.012-2.172-.236-4.337-.74-6.45-.426-1.867-1.192-3.64-2.26-5.23zm-5 16.14c.078 1.654-.556 3.263-1.74 4.42-1.307 1.15-3.013 1.738-4.75 1.64-2.473 0-4.273-.74-5.4-2.22-1.205-1.735-1.8-3.82-1.69-5.93v-4.71c-.11-2.11.486-4.195 1.69-5.93 1.127-1.48 2.927-2.22 5.4-2.22 1.742-.103 3.455.483 4.77 1.63 1.175 1.158 1.8 2.762 1.72 4.41v8.91zM140.63 235.8c-1.255-1.352-2.777-2.428-4.47-3.16-1.84-.785-3.82-1.177-5.82-1.15-2.002-.025-3.986.377-5.82 1.18-1.737.758-3.282 1.896-4.52 3.33-1.286 1.528-2.264 3.29-2.88 5.19-.7 2.18-1.037 4.46-1 6.75-.015 2.29.322 4.57 1 6.76.576 1.907 1.524 3.68 2.79 5.22 1.214 1.447 2.738 2.603 4.46 3.38 1.89.833 3.936 1.246 6 1.21 3.39.148 6.73-.88 9.45-2.91 2.5-2.03 4.092-4.968 4.43-8.17h-7.73c-.12 1.45-.807 2.792-1.91 3.74-1.178.922-2.646 1.394-4.14 1.33-1.623.063-3.213-.47-4.47-1.5-1.266-1.097-1.953-2.718-1.86-4.39v-2.08h20.29v-3.93c.01-2.042-.327-4.072-1-6-.594-1.775-1.547-3.41-2.8-4.8zm-4.09 8.68h-12.38v-1.12c-.055-1.6.587-3.142 1.76-4.23 2.556-2.177 6.314-2.177 8.87 0 1.173 1.088 1.815 2.63 1.76 4.23l-.01 1.12zM150.94 263.77h7.73V238.3h9.87v-6.04h-17.6"></path></g></svg>
